<svg xmlns="http://www.w3.org/2000/svg" width="359" height="152" viewBox="0 0 359 152" font-family="ui-monospace,SFMono-Regular,Menlo,Consolas,monospace" font-size="14">
<rect width="359" height="152" rx="10" fill="#0d1117"/>
<path d="M0 10a10 10 0 0 1 10-10h339a10 10 0 0 1 10 10v22H0z" fill="#161b22"/>
<circle cx="20" cy="16" r="6" fill="#ff5f56"/>
<circle cx="40" cy="16" r="6" fill="#ffbd2e"/>
<circle cx="60" cy="16" r="6" fill="#27c93f"/>
<text x="180" y="21" fill="#8b949e" text-anchor="middle" font-size="12">composer test</text>
<text x="36.8" y="52.0" fill="#6e7681" font-weight="bold" xml:space="preserve">.</text>
<text x="45.2" y="52.0" fill="#6e7681" font-weight="bold" xml:space="preserve">.</text>
<text x="53.6" y="52.0" fill="#6e7681" font-weight="bold" xml:space="preserve">.</text>
<text x="62.0" y="52.0" fill="#6e7681" font-weight="bold" xml:space="preserve">.</text>
<text x="70.4" y="52.0" fill="#6e7681" font-weight="bold" xml:space="preserve">.</text>
<text x="78.8" y="52.0" fill="#6e7681" font-weight="bold" xml:space="preserve">.</text>
<text x="87.2" y="52.0" fill="#6e7681" font-weight="bold" xml:space="preserve">.</text>
<text x="95.6" y="52.0" fill="#6e7681" font-weight="bold" xml:space="preserve">.</text>
<text x="104.0" y="52.0" fill="#6e7681" font-weight="bold" xml:space="preserve">.</text>
<text x="112.4" y="52.0" fill="#6e7681" font-weight="bold" xml:space="preserve">.</text>
<text x="120.8" y="52.0" fill="#6e7681" font-weight="bold" xml:space="preserve">.</text>
<text x="129.2" y="52.0" fill="#6e7681" font-weight="bold" xml:space="preserve">.</text>
<text x="137.6" y="52.0" fill="#6e7681" font-weight="bold" xml:space="preserve">.</text>
<text x="146.0" y="52.0" fill="#6e7681" font-weight="bold" xml:space="preserve">.</text>
<text x="154.4" y="52.0" fill="#6e7681" font-weight="bold" xml:space="preserve">.</text>
<text x="162.8" y="52.0" fill="#6e7681" font-weight="bold" xml:space="preserve">.</text>
<text x="171.2" y="52.0" fill="#6e7681" font-weight="bold" xml:space="preserve">.</text>
<text x="179.6" y="52.0" fill="#6e7681" font-weight="bold" xml:space="preserve">.</text>
<text x="188.0" y="52.0" fill="#6e7681" font-weight="bold" xml:space="preserve">.</text>
<text x="196.4" y="52.0" fill="#6e7681" font-weight="bold" xml:space="preserve">.</text>
<text x="204.8" y="52.0" fill="#6e7681" font-weight="bold" xml:space="preserve">.</text>
<text x="213.2" y="52.0" fill="#6e7681" font-weight="bold" xml:space="preserve">.</text>
<text x="221.6" y="52.0" fill="#6e7681" font-weight="bold" xml:space="preserve">.</text>
<text x="230.0" y="52.0" fill="#6e7681" font-weight="bold" xml:space="preserve">.</text>
<text x="238.4" y="52.0" fill="#6e7681" font-weight="bold" xml:space="preserve">.</text>
<text x="246.8" y="52.0" fill="#6e7681" font-weight="bold" xml:space="preserve">.</text>
<text x="255.2" y="52.0" fill="#6e7681" font-weight="bold" xml:space="preserve">.</text>
<text x="263.6" y="52.0" fill="#6e7681" font-weight="bold" xml:space="preserve">.</text>
<text x="272.0" y="52.0" fill="#6e7681" font-weight="bold" xml:space="preserve">.</text>
<text x="280.4" y="52.0" fill="#6e7681" font-weight="bold" xml:space="preserve">.</text>
<text x="288.8" y="52.0" fill="#6e7681" font-weight="bold" xml:space="preserve">.</text>
<text x="297.2" y="52.0" fill="#6e7681" font-weight="bold" xml:space="preserve">.</text>
<text x="305.6" y="52.0" fill="#6e7681" font-weight="bold" xml:space="preserve">.</text>
<text x="314.0" y="52.0" fill="#6e7681" font-weight="bold" xml:space="preserve">.</text>
<text x="322.4" y="52.0" fill="#6e7681" font-weight="bold" xml:space="preserve">.</text>
<text x="36.8" y="92.0" fill="#6e7681" xml:space="preserve">Tests:</text>
<text x="120.8" y="92.0" fill="#3fb950" font-weight="bold" xml:space="preserve">35 passed</text>
<text x="196.4" y="92.0" fill="#6e7681" xml:space="preserve"> (105 assertions)</text>
<text x="36.8" y="112.0" fill="#6e7681" xml:space="preserve">Duration:</text>
<text x="120.8" y="112.0" fill="#c9d1d9" xml:space="preserve">0.26s</text>
</svg>